<mxfile host="app.diagrams.net" modified="2020-06-17T01:34:12.410Z" agent="5.0 (Macintosh; Intel Mac OS X 10_14_6) AppleWebKit/537.36 (KHTML, like Gecko) Chrome/81.0.4044.138 Safari/537.36 OPR/68.0.3618.104" etag="rkrmfXKnJX9x3l1SYVSj" version="13.2.4" type="github">
  <diagram id="C5RBs43oDa-KdzZeNtuy" name="Page-1">
    <mxGraphModel dx="906" dy="597" grid="1" gridSize="10" guides="1" tooltips="1" connect="1" arrows="1" fold="1" page="1" pageScale="1" pageWidth="827" pageHeight="1169" math="0" shadow="0">
      <root>
        <mxCell id="WIyWlLk6GJQsqaUBKTNV-0" />
        <mxCell id="WIyWlLk6GJQsqaUBKTNV-1" parent="WIyWlLk6GJQsqaUBKTNV-0" />
        <mxCell id="moa3-WVM1hV9EF_nmvs9-41" value="Quality Control" style="rounded=0;whiteSpace=wrap;html=1;align=left;verticalAlign=top;fontColor=#009900;strokeColor=#009900;" vertex="1" parent="WIyWlLk6GJQsqaUBKTNV-1">
          <mxGeometry x="395" y="30" width="530" height="460" as="geometry" />
        </mxCell>
        <mxCell id="moa3-WVM1hV9EF_nmvs9-2" value="" style="edgeStyle=orthogonalEdgeStyle;rounded=0;orthogonalLoop=1;jettySize=auto;html=1;entryX=0.5;entryY=0;entryDx=0;entryDy=0;" edge="1" parent="WIyWlLk6GJQsqaUBKTNV-1" source="WIyWlLk6GJQsqaUBKTNV-3" target="moa3-WVM1hV9EF_nmvs9-11">
          <mxGeometry relative="1" as="geometry">
            <mxPoint x="260" y="150" as="targetPoint" />
          </mxGeometry>
        </mxCell>
        <mxCell id="WIyWlLk6GJQsqaUBKTNV-3" value="Read in single dedispersed time series" style="rounded=1;whiteSpace=wrap;html=1;fontSize=12;glass=0;strokeWidth=1;shadow=0;" parent="WIyWlLk6GJQsqaUBKTNV-1" vertex="1">
          <mxGeometry x="200" y="70" width="120" height="50" as="geometry" />
        </mxCell>
        <mxCell id="moa3-WVM1hV9EF_nmvs9-15" value="" style="edgeStyle=orthogonalEdgeStyle;rounded=0;orthogonalLoop=1;jettySize=auto;html=1;" edge="1" parent="WIyWlLk6GJQsqaUBKTNV-1" source="moa3-WVM1hV9EF_nmvs9-11" target="moa3-WVM1hV9EF_nmvs9-14">
          <mxGeometry relative="1" as="geometry" />
        </mxCell>
        <mxCell id="moa3-WVM1hV9EF_nmvs9-11" value="Make power spectrum" style="rounded=1;whiteSpace=wrap;html=1;fontSize=12;glass=0;strokeWidth=1;shadow=0;" vertex="1" parent="WIyWlLk6GJQsqaUBKTNV-1">
          <mxGeometry x="200" y="200" width="120" height="50" as="geometry" />
        </mxCell>
        <mxCell id="moa3-WVM1hV9EF_nmvs9-40" style="edgeStyle=orthogonalEdgeStyle;rounded=0;orthogonalLoop=1;jettySize=auto;html=1;exitX=0.5;exitY=1;exitDx=0;exitDy=0;" edge="1" parent="WIyWlLk6GJQsqaUBKTNV-1" source="moa3-WVM1hV9EF_nmvs9-14" target="moa3-WVM1hV9EF_nmvs9-19">
          <mxGeometry relative="1" as="geometry" />
        </mxCell>
        <mxCell id="moa3-WVM1hV9EF_nmvs9-14" value="Zap birdies from power spectrum" style="rounded=1;whiteSpace=wrap;html=1;fontSize=12;glass=0;strokeWidth=1;shadow=0;" vertex="1" parent="WIyWlLk6GJQsqaUBKTNV-1">
          <mxGeometry x="200" y="320" width="120" height="50" as="geometry" />
        </mxCell>
        <mxCell id="moa3-WVM1hV9EF_nmvs9-6" value="" style="edgeStyle=orthogonalEdgeStyle;rounded=0;orthogonalLoop=1;jettySize=auto;html=1;" edge="1" parent="WIyWlLk6GJQsqaUBKTNV-1" source="moa3-WVM1hV9EF_nmvs9-3" target="moa3-WVM1hV9EF_nmvs9-5">
          <mxGeometry relative="1" as="geometry" />
        </mxCell>
        <mxCell id="moa3-WVM1hV9EF_nmvs9-3" value="read in birdies list" style="rounded=1;whiteSpace=wrap;html=1;fontSize=12;glass=0;strokeWidth=1;shadow=0;" vertex="1" parent="WIyWlLk6GJQsqaUBKTNV-1">
          <mxGeometry x="30" y="70" width="120" height="50" as="geometry" />
        </mxCell>
        <mxCell id="moa3-WVM1hV9EF_nmvs9-8" value="" style="edgeStyle=orthogonalEdgeStyle;rounded=0;orthogonalLoop=1;jettySize=auto;html=1;" edge="1" parent="WIyWlLk6GJQsqaUBKTNV-1" source="moa3-WVM1hV9EF_nmvs9-5" target="moa3-WVM1hV9EF_nmvs9-7">
          <mxGeometry relative="1" as="geometry" />
        </mxCell>
        <mxCell id="moa3-WVM1hV9EF_nmvs9-5" value="Expand birdies list to explicitly list harmonics" style="rounded=1;whiteSpace=wrap;html=1;fontSize=12;glass=0;strokeWidth=1;shadow=0;" vertex="1" parent="WIyWlLk6GJQsqaUBKTNV-1">
          <mxGeometry x="30" y="200" width="120" height="50" as="geometry" />
        </mxCell>
        <mxCell id="moa3-WVM1hV9EF_nmvs9-13" style="edgeStyle=orthogonalEdgeStyle;rounded=0;orthogonalLoop=1;jettySize=auto;html=1;exitX=1;exitY=0.5;exitDx=0;exitDy=0;entryX=0;entryY=0.5;entryDx=0;entryDy=0;" edge="1" parent="WIyWlLk6GJQsqaUBKTNV-1" source="moa3-WVM1hV9EF_nmvs9-7">
          <mxGeometry relative="1" as="geometry">
            <mxPoint x="200" y="345" as="targetPoint" />
          </mxGeometry>
        </mxCell>
        <mxCell id="moa3-WVM1hV9EF_nmvs9-7" value="Convert topocentric RFI frequencies to barycentric ones" style="rounded=1;whiteSpace=wrap;html=1;fontSize=12;glass=0;strokeWidth=1;shadow=0;" vertex="1" parent="WIyWlLk6GJQsqaUBKTNV-1">
          <mxGeometry x="30" y="320" width="120" height="50" as="geometry" />
        </mxCell>
        <mxCell id="moa3-WVM1hV9EF_nmvs9-18" value="" style="edgeStyle=orthogonalEdgeStyle;rounded=0;orthogonalLoop=1;jettySize=auto;html=1;" edge="1" parent="WIyWlLk6GJQsqaUBKTNV-1" source="moa3-WVM1hV9EF_nmvs9-16" target="moa3-WVM1hV9EF_nmvs9-17">
          <mxGeometry relative="1" as="geometry" />
        </mxCell>
        <mxCell id="moa3-WVM1hV9EF_nmvs9-16" value="Compare 0 DM power spectra across multiple (simultaneous) pointings" style="rounded=1;whiteSpace=wrap;html=1;fontSize=12;glass=0;strokeWidth=1;shadow=0;" vertex="1" parent="WIyWlLk6GJQsqaUBKTNV-1">
          <mxGeometry x="440" y="310" width="140" height="60" as="geometry" />
        </mxCell>
        <mxCell id="moa3-WVM1hV9EF_nmvs9-20" value="" style="edgeStyle=orthogonalEdgeStyle;rounded=0;orthogonalLoop=1;jettySize=auto;html=1;" edge="1" parent="WIyWlLk6GJQsqaUBKTNV-1" source="moa3-WVM1hV9EF_nmvs9-17" target="moa3-WVM1hV9EF_nmvs9-19">
          <mxGeometry relative="1" as="geometry" />
        </mxCell>
        <mxCell id="moa3-WVM1hV9EF_nmvs9-17" value="Identify common signals" style="rounded=1;whiteSpace=wrap;html=1;fontSize=12;glass=0;strokeWidth=1;shadow=0;" vertex="1" parent="WIyWlLk6GJQsqaUBKTNV-1">
          <mxGeometry x="440" y="410" width="140" height="60" as="geometry" />
        </mxCell>
        <mxCell id="moa3-WVM1hV9EF_nmvs9-43" value="" style="edgeStyle=orthogonalEdgeStyle;rounded=0;orthogonalLoop=1;jettySize=auto;html=1;fontColor=#009900;" edge="1" parent="WIyWlLk6GJQsqaUBKTNV-1" source="moa3-WVM1hV9EF_nmvs9-19" target="moa3-WVM1hV9EF_nmvs9-42">
          <mxGeometry relative="1" as="geometry" />
        </mxCell>
        <mxCell id="moa3-WVM1hV9EF_nmvs9-19" value="Zap common signals from power spectra" style="rounded=1;whiteSpace=wrap;html=1;fontSize=12;glass=0;strokeWidth=1;shadow=0;" vertex="1" parent="WIyWlLk6GJQsqaUBKTNV-1">
          <mxGeometry x="190" y="520" width="140" height="60" as="geometry" />
        </mxCell>
        <mxCell id="moa3-WVM1hV9EF_nmvs9-45" value="" style="edgeStyle=orthogonalEdgeStyle;rounded=0;orthogonalLoop=1;jettySize=auto;html=1;fontColor=#009900;" edge="1" parent="WIyWlLk6GJQsqaUBKTNV-1" source="moa3-WVM1hV9EF_nmvs9-42" target="moa3-WVM1hV9EF_nmvs9-44">
          <mxGeometry relative="1" as="geometry" />
        </mxCell>
        <mxCell id="moa3-WVM1hV9EF_nmvs9-47" value="" style="edgeStyle=orthogonalEdgeStyle;rounded=0;orthogonalLoop=1;jettySize=auto;html=1;fontColor=#009900;" edge="1" parent="WIyWlLk6GJQsqaUBKTNV-1" source="moa3-WVM1hV9EF_nmvs9-42" target="moa3-WVM1hV9EF_nmvs9-46">
          <mxGeometry relative="1" as="geometry" />
        </mxCell>
        <mxCell id="moa3-WVM1hV9EF_nmvs9-42" value="Daily search" style="rounded=1;whiteSpace=wrap;html=1;fontSize=12;glass=0;strokeWidth=1;shadow=0;" vertex="1" parent="WIyWlLk6GJQsqaUBKTNV-1">
          <mxGeometry x="190" y="610" width="140" height="60" as="geometry" />
        </mxCell>
        <mxCell id="moa3-WVM1hV9EF_nmvs9-46" value="candidates sent to candidate processor" style="rounded=1;whiteSpace=wrap;html=1;fontSize=12;glass=0;strokeWidth=1;shadow=0;" vertex="1" parent="WIyWlLk6GJQsqaUBKTNV-1">
          <mxGeometry x="410" y="610" width="140" height="60" as="geometry" />
        </mxCell>
        <mxCell id="moa3-WVM1hV9EF_nmvs9-44" value="Stack onto monthly power spectrum" style="rounded=1;whiteSpace=wrap;html=1;fontSize=12;glass=0;strokeWidth=1;shadow=0;" vertex="1" parent="WIyWlLk6GJQsqaUBKTNV-1">
          <mxGeometry x="190" y="700" width="140" height="60" as="geometry" />
        </mxCell>
        <mxCell id="moa3-WVM1hV9EF_nmvs9-21" style="edgeStyle=orthogonalEdgeStyle;rounded=0;orthogonalLoop=1;jettySize=auto;html=1;exitX=0.5;exitY=1;exitDx=0;exitDy=0;" edge="1" parent="WIyWlLk6GJQsqaUBKTNV-1" source="moa3-WVM1hV9EF_nmvs9-17" target="moa3-WVM1hV9EF_nmvs9-17">
          <mxGeometry relative="1" as="geometry" />
        </mxCell>
        <mxCell id="moa3-WVM1hV9EF_nmvs9-23" style="edgeStyle=orthogonalEdgeStyle;rounded=0;orthogonalLoop=1;jettySize=auto;html=1;exitX=0.5;exitY=1;exitDx=0;exitDy=0;entryX=0.5;entryY=0;entryDx=0;entryDy=0;" edge="1" parent="WIyWlLk6GJQsqaUBKTNV-1" source="moa3-WVM1hV9EF_nmvs9-22" target="moa3-WVM1hV9EF_nmvs9-16">
          <mxGeometry relative="1" as="geometry" />
        </mxCell>
        <mxCell id="moa3-WVM1hV9EF_nmvs9-22" value="Zap birdies from power spectrum" style="rounded=1;whiteSpace=wrap;html=1;fontSize=12;glass=0;strokeWidth=1;shadow=0;" vertex="1" parent="WIyWlLk6GJQsqaUBKTNV-1">
          <mxGeometry x="450" y="220" width="120" height="50" as="geometry" />
        </mxCell>
        <mxCell id="moa3-WVM1hV9EF_nmvs9-25" style="edgeStyle=orthogonalEdgeStyle;rounded=0;orthogonalLoop=1;jettySize=auto;html=1;" edge="1" parent="WIyWlLk6GJQsqaUBKTNV-1" source="moa3-WVM1hV9EF_nmvs9-24">
          <mxGeometry relative="1" as="geometry">
            <mxPoint x="510" y="310" as="targetPoint" />
            <Array as="points">
              <mxPoint x="660" y="290" />
              <mxPoint x="510" y="290" />
            </Array>
          </mxGeometry>
        </mxCell>
        <mxCell id="moa3-WVM1hV9EF_nmvs9-24" value="Zap birdies from power spectrum" style="rounded=1;whiteSpace=wrap;html=1;fontSize=12;glass=0;strokeWidth=1;shadow=0;" vertex="1" parent="WIyWlLk6GJQsqaUBKTNV-1">
          <mxGeometry x="600" y="220" width="120" height="50" as="geometry" />
        </mxCell>
        <mxCell id="moa3-WVM1hV9EF_nmvs9-27" style="edgeStyle=orthogonalEdgeStyle;rounded=0;orthogonalLoop=1;jettySize=auto;html=1;entryX=0.5;entryY=0;entryDx=0;entryDy=0;" edge="1" parent="WIyWlLk6GJQsqaUBKTNV-1" source="moa3-WVM1hV9EF_nmvs9-26" target="moa3-WVM1hV9EF_nmvs9-16">
          <mxGeometry relative="1" as="geometry">
            <Array as="points">
              <mxPoint x="810" y="290" />
              <mxPoint x="510" y="290" />
            </Array>
          </mxGeometry>
        </mxCell>
        <mxCell id="moa3-WVM1hV9EF_nmvs9-26" value="Zap birdies from power spectrum" style="rounded=1;whiteSpace=wrap;html=1;fontSize=12;glass=0;strokeWidth=1;shadow=0;" vertex="1" parent="WIyWlLk6GJQsqaUBKTNV-1">
          <mxGeometry x="750" y="220" width="120" height="50" as="geometry" />
        </mxCell>
        <mxCell id="moa3-WVM1hV9EF_nmvs9-28" value="" style="endArrow=none;dashed=1;html=1;" edge="1" parent="WIyWlLk6GJQsqaUBKTNV-1">
          <mxGeometry width="50" height="50" relative="1" as="geometry">
            <mxPoint x="810" y="290" as="sourcePoint" />
            <mxPoint x="930" y="290" as="targetPoint" />
          </mxGeometry>
        </mxCell>
        <mxCell id="moa3-WVM1hV9EF_nmvs9-29" value="Read in single 0 DM time series" style="rounded=1;whiteSpace=wrap;html=1;fontSize=12;glass=0;strokeWidth=1;shadow=0;" vertex="1" parent="WIyWlLk6GJQsqaUBKTNV-1">
          <mxGeometry x="450" y="70" width="120" height="50" as="geometry" />
        </mxCell>
        <mxCell id="moa3-WVM1hV9EF_nmvs9-30" value="" style="endArrow=none;dashed=1;html=1;entryX=0.5;entryY=1;entryDx=0;entryDy=0;" edge="1" parent="WIyWlLk6GJQsqaUBKTNV-1" target="moa3-WVM1hV9EF_nmvs9-29">
          <mxGeometry width="50" height="50" relative="1" as="geometry">
            <mxPoint x="510" y="140" as="sourcePoint" />
            <mxPoint x="530" y="310" as="targetPoint" />
          </mxGeometry>
        </mxCell>
        <mxCell id="moa3-WVM1hV9EF_nmvs9-31" value="" style="endArrow=none;dashed=1;html=1;exitX=0.5;exitY=0;exitDx=0;exitDy=0;" edge="1" parent="WIyWlLk6GJQsqaUBKTNV-1" source="moa3-WVM1hV9EF_nmvs9-22">
          <mxGeometry width="50" height="50" relative="1" as="geometry">
            <mxPoint x="513" y="150" as="sourcePoint" />
            <mxPoint x="510" y="190" as="targetPoint" />
          </mxGeometry>
        </mxCell>
        <mxCell id="moa3-WVM1hV9EF_nmvs9-33" value="Read in single 0 DM time series" style="rounded=1;whiteSpace=wrap;html=1;fontSize=12;glass=0;strokeWidth=1;shadow=0;" vertex="1" parent="WIyWlLk6GJQsqaUBKTNV-1">
          <mxGeometry x="600" y="70" width="120" height="50" as="geometry" />
        </mxCell>
        <mxCell id="moa3-WVM1hV9EF_nmvs9-34" value="" style="endArrow=none;dashed=1;html=1;entryX=0.5;entryY=1;entryDx=0;entryDy=0;" edge="1" parent="WIyWlLk6GJQsqaUBKTNV-1" target="moa3-WVM1hV9EF_nmvs9-33">
          <mxGeometry width="50" height="50" relative="1" as="geometry">
            <mxPoint x="660" y="140" as="sourcePoint" />
            <mxPoint x="680" y="310" as="targetPoint" />
          </mxGeometry>
        </mxCell>
        <mxCell id="moa3-WVM1hV9EF_nmvs9-35" value="Read in single 0 DM time series" style="rounded=1;whiteSpace=wrap;html=1;fontSize=12;glass=0;strokeWidth=1;shadow=0;" vertex="1" parent="WIyWlLk6GJQsqaUBKTNV-1">
          <mxGeometry x="750" y="70" width="120" height="50" as="geometry" />
        </mxCell>
        <mxCell id="moa3-WVM1hV9EF_nmvs9-36" value="" style="endArrow=none;dashed=1;html=1;entryX=0.5;entryY=1;entryDx=0;entryDy=0;" edge="1" parent="WIyWlLk6GJQsqaUBKTNV-1" target="moa3-WVM1hV9EF_nmvs9-35">
          <mxGeometry width="50" height="50" relative="1" as="geometry">
            <mxPoint x="810" y="140" as="sourcePoint" />
            <mxPoint x="830" y="310" as="targetPoint" />
          </mxGeometry>
        </mxCell>
        <mxCell id="moa3-WVM1hV9EF_nmvs9-38" value="" style="endArrow=none;dashed=1;html=1;entryX=0.5;entryY=1;entryDx=0;entryDy=0;" edge="1" parent="WIyWlLk6GJQsqaUBKTNV-1">
          <mxGeometry width="50" height="50" relative="1" as="geometry">
            <mxPoint x="659.5" y="220" as="sourcePoint" />
            <mxPoint x="659.5" y="200" as="targetPoint" />
          </mxGeometry>
        </mxCell>
        <mxCell id="moa3-WVM1hV9EF_nmvs9-39" value="" style="endArrow=none;dashed=1;html=1;entryX=0.5;entryY=1;entryDx=0;entryDy=0;" edge="1" parent="WIyWlLk6GJQsqaUBKTNV-1">
          <mxGeometry width="50" height="50" relative="1" as="geometry">
            <mxPoint x="809.5" y="220" as="sourcePoint" />
            <mxPoint x="809.5" y="200" as="targetPoint" />
          </mxGeometry>
        </mxCell>
      </root>
    </mxGraphModel>
  </diagram>
</mxfile>
